<svg xmlns="http://www.w3.org/2000/svg" viewBox="0 0 100 100">
  <defs>
    <clipPath id="fav-left">
      <rect x="0" y="0" width="50" height="100"/>
    </clipPath>
    <clipPath id="fav-right">
      <rect x="50" y="0" width="50" height="100"/>
    </clipPath>
  </defs>
  <!-- White outline border -->
  <path d="M50 4 L93 19 L93 54 C93 77 74 95 50 99 C26 95 7 77 7 54 L7 19 Z" fill="white"/>
  <!-- Blue left half (inner) -->
  <path d="M50 9 L88 23 L88 54 C88 75 70 92 50 96 C30 92 12 75 12 54 L12 23 Z" fill="#1C3B9E" clip-path="url(#fav-left)"/>
  <!-- Red right half (inner) -->
  <path d="M50 9 L88 23 L88 54 C88 75 70 92 50 96 C30 92 12 75 12 54 L12 23 Z" fill="#CF2F35" clip-path="url(#fav-right)"/>
  <!-- White H -->
  <text x="50" y="68" text-anchor="middle" fill="white" font-family="Arial Black, Impact, sans-serif" font-weight="900" font-size="44">H</text>
</svg>
